<svg xmlns="http://www.w3.org/2000/svg" viewBox="0 0 408.84 409.6"><defs><style>.cls-1{fill:#4e4e4e;}.cls-2{fill:#9f9f9f;}.cls-3{fill:#020202;}.cls-4{fill:#010101;}</style></defs><g id="Camada_2" data-name="Camada 2"><g id="Camada_1-2" data-name="Camada 1"><path d="M188.42,408.91A202.24,202.24,0,0,1,69.3,358.4c-28.11-25-48.17-55.38-59.63-91.33a211.49,211.49,0,0,1-9.43-72,206.9,206.9,0,0,1,10.48-55.84A206.39,206.39,0,0,1,115.42,20.36,196.29,196.29,0,0,1,169.35,3.09,150.22,150.22,0,0,1,190.7.66c2.72,0,5.44.08,8.16,0,.27,0,.53-.46.79-.71h9.58c.27.25.53.71.79.71,2.72,0,5.44,0,8.17,0,3.32.09,6.61.42,9.92.77a193.13,193.13,0,0,1,38.44,8.21c35.89,11.47,66.2,31.58,91.17,59.74a202.89,202.89,0,0,1,50.43,119.36c0,1.92-.62,3.91.69,5.66v20.8c-1.31,1.75-.74,3.74-.69,5.66-.26,2.51-.54,5-.77,7.53a175.26,175.26,0,0,1-5.76,30.48c-10.8,39.39-31.7,72.51-62.12,99.6a202.16,202.16,0,0,1-119,50.44c-1.92-.05-3.9-.62-5.65.69H194.06C192.31,408.29,190.33,408.86,188.42,408.91Zm16.16-11.31c106.16-.06,192.25-86.35,192.29-192.74C396.9,98.32,310.63,11.93,204.3,12,98.14,12.07,12.05,98.35,12,204.74S98.25,397.69,204.58,397.6Z"/><path class="cls-1" d="M199.65,0c-.26.25-.52.71-.79.71-2.72,0-5.44,0-8.16,0a2.14,2.14,0,0,0,.17-.66Z"/><path class="cls-1" d="M218,0a1.91,1.91,0,0,0,.18.66c-2.73,0-5.45.08-8.17,0-.26,0-.52-.46-.79-.71Z"/><path class="cls-2" d="M408.15,188.74a4,4,0,0,0,.69.06v5.6C407.53,192.65,408.1,190.66,408.15,188.74Z"/><path class="cls-2" d="M408.84,220.8a4,4,0,0,0-.69.06c0-1.92-.62-3.91.69-5.66Z"/><path class="cls-2" d="M188.42,408.91c1.91-.05,3.89-.62,5.64.69h-5.59A1.46,1.46,0,0,0,188.42,408.91Z"/><path class="cls-2" d="M220.47,408.91a1.34,1.34,0,0,0-.06.69h-5.59C216.57,408.29,218.55,408.86,220.47,408.91Z"/><path d="M370.34,203.81a169.74,169.74,0,0,1-7.21,49.51,165.69,165.69,0,0,1-17.66,39,167.68,167.68,0,0,1-44,47.31,164.89,164.89,0,0,1-37.27,20.24,155,155,0,0,1-36.45,9.49,157.65,157.65,0,0,1-31.79,1.37,186.16,186.16,0,0,1-33-5.05,160.55,160.55,0,0,1-32.3-12,164.76,164.76,0,0,1-30.71-19.84c-1.13-.93-2.21-1.92-3.34-2.84-2.18-1.77-2-5.8-.58-7.68a5.77,5.77,0,0,1,7.45-1.62,20.32,20.32,0,0,1,3.27,2.27,161.52,161.52,0,0,0,30.07,19.34,152.69,152.69,0,0,0,37.12,12.64A154.61,154.61,0,0,0,205.16,359a158.41,158.41,0,0,0,26.54-2.45A153.35,153.35,0,0,0,298.28,327a153.93,153.93,0,0,0,56.55-89.4,149.13,149.13,0,0,0,3.41-40.45,156.27,156.27,0,0,0-11.15-50.32,158.12,158.12,0,0,0-23.72-39.92,16.24,16.24,0,0,1-2.45-3.62A5.82,5.82,0,0,1,330,96.46a28.42,28.42,0,0,1,2.91,3.28,164.55,164.55,0,0,1,27.12,47.51,158.56,158.56,0,0,1,9,37.85A148.12,148.12,0,0,1,370.34,203.81Z"/><path d="M38.48,208.41c.12-19.61,2.37-36.14,7.32-52.27a166,166,0,0,1,98-106,158.9,158.9,0,0,1,37.55-9.93,163.07,163.07,0,0,1,41.71-.5,176.46,176.46,0,0,1,34.86,7.72,158.79,158.79,0,0,1,31.31,14.5A185.89,185.89,0,0,1,310.64,77.1c2,1.66,3.65,3.44,3.29,6.38A5.78,5.78,0,0,1,306,88.2a15.9,15.9,0,0,1-4-2.62,155,155,0,0,0-30.78-19.7,151.18,151.18,0,0,0-36.43-12.24,155.36,155.36,0,0,0-32-3.08A159.82,159.82,0,0,0,177,53a152.68,152.68,0,0,0-66.55,29.63A154.18,154.18,0,0,0,54,172.12a149.17,149.17,0,0,0-3.36,40.46,154.92,154.92,0,0,0,34.7,89.89,22,22,0,0,1,2.48,3.6,5.82,5.82,0,0,1-1.74,7.45c-1.66,1.32-5.73,1.48-7.35-.46-.51-.61-1.13-1.14-1.64-1.75a168.28,168.28,0,0,1-29.59-52.44,151.87,151.87,0,0,1-7.26-30.14C39.23,221.1,38.23,213.41,38.48,208.41Z"/><path d="M221,196.13c4.69-.7,9.15-1.34,13.59-2q14.55-2.24,29.09-4.5c6.16-1,12.31-2,18.47-2.88a39.9,39.9,0,0,1,5.55-.51,5.84,5.84,0,0,1,5.87,4.9,6.18,6.18,0,0,1-4.21,6.5c-2.16.8-4.44.8-6.66,1.15-13,2.06-25.94,4-38.92,6L223.12,208c-3.93,14.23-16,17.39-24.79,14.47s-16-13.25-10.8-25.85c-.6-1.29-1.83-2.14-2.84-3.15Q155.23,164,125.74,134.42a24.31,24.31,0,0,1-2.92-3.26,5.82,5.82,0,0,1,.77-7.6,5.74,5.74,0,0,1,7.29-.58,22.48,22.48,0,0,1,3.26,2.92q29.36,29.39,58.67,58.8c1,1,1.94,2.19,3,3.39A19.44,19.44,0,0,1,210,186.94C214.71,188.36,218.31,191.43,221,196.13Zm-16.67,2a6.64,6.64,0,1,0,6.73,6.74A6.46,6.46,0,0,0,204.34,198.16Z"/><path class="cls-3" d="M210.53,83.19c0,3.33-.05,6.65,0,10A14.61,14.61,0,0,1,210,97.5a5.83,5.83,0,0,1-11.18-.06,16.14,16.14,0,0,1-.47-3.93q-.07-10.17,0-20.35a23.59,23.59,0,0,1,.44-4.35,5.73,5.73,0,0,1,11.27,0,29.13,29.13,0,0,1,.43,4.75C210.57,76.8,210.53,80,210.53,83.19Z"/><path class="cls-3" d="M82.67,210.69c-4.11,0-8.22,0-12.33,0A5.93,5.93,0,0,1,64.11,204a5.87,5.87,0,0,1,4.61-4.88,23.4,23.4,0,0,1,4.34-.44q10.16-.06,20.31,0a16.77,16.77,0,0,1,3.53.41,5.52,5.52,0,0,1,4.59,5.64A5.58,5.58,0,0,1,97,210.48a14.41,14.41,0,0,1-3.93.43c-3.45,0-6.91,0-10.36,0Z"/><path class="cls-3" d="M325.65,210.9c-3.32,0-6.64-.06-10,0a14.48,14.48,0,0,1-4.32-.55,5.88,5.88,0,0,1,0-11.13,15.16,15.16,0,0,1,4.32-.56c6.63.06,13.27,0,19.91,0a25.41,25.41,0,0,1,4.35.4,5.74,5.74,0,0,1,0,11.35,34,34,0,0,1-5.14.41C331.75,210.94,328.7,210.9,325.65,210.9Z"/><path class="cls-3" d="M210.53,326.24c0,3.33.06,6.65,0,10a25.82,25.82,0,0,1-.54,5.13,5.75,5.75,0,0,1-11,0,23.25,23.25,0,0,1-.54-5.14c-.06-6.65,0-13.3,0-19.95a15.57,15.57,0,0,1,.56-4.32,5.86,5.86,0,0,1,11.11,0,14.87,14.87,0,0,1,.55,4.33C210.47,319.59,210.53,322.92,210.53,326.24Z"/><path class="cls-4" d="M149.41,98.5c.16,3.23-1.09,5.07-3.24,6.13a5.81,5.81,0,0,1-6.31-.82,6.51,6.51,0,0,1-1.54-1.8c-2.08-3.54-4.21-7.05-6.11-10.69-1.73-3.31-.79-6.58,2.11-8.24s6-1,7.94,2.09c2.35,3.67,4.39,7.54,6.58,11.32A4.75,4.75,0,0,1,149.41,98.5Z"/><path class="cls-4" d="M271.61,82.34c3.85-.29,7.32,4.28,5.47,8.06A102.38,102.38,0,0,1,270,102.77a6,6,0,0,1-7.44,1.84,6.1,6.1,0,0,1-2.72-7.54,38.46,38.46,0,0,1,2.63-4.89c1.32-2.3,2.61-4.61,4-6.85C267.65,83.43,269.3,82.19,271.61,82.34Z"/><path class="cls-4" d="M149.44,311a4.6,4.6,0,0,1-.57,2.06c-2.24,3.9-4.41,7.83-6.74,11.68-1.41,2.32-3.76,2.82-6.26,2.44-2.22-.34-4-2.51-4.52-5a4.26,4.26,0,0,1,.37-2.69,80.59,80.59,0,0,1,7.28-12.7,5.82,5.82,0,0,1,9-.43C149.08,307.56,149.46,308.62,149.44,311Z"/><path class="cls-4" d="M271.91,327.3c-2.23-.1-4.16-.75-5.35-2.83-2.11-3.67-4.35-7.26-6.31-11-1.74-3.33-.75-6.75,2.09-8.32a6.09,6.09,0,0,1,8,2.19c2.39,3.8,4.66,7.7,6.66,11.72C279.18,323.42,275,327.54,271.91,327.3Z"/><path class="cls-4" d="M104.91,143.51c0,4.73-4.25,7.67-8.32,5.67a107.46,107.46,0,0,1-11.94-7A5.53,5.53,0,0,1,83,134.46a5.65,5.65,0,0,1,7.54-2.33c4.1,2.12,8,4.54,12,7A4.86,4.86,0,0,1,104.91,143.51Z"/><path class="cls-4" d="M310.25,149.72c-3,0-5.21-1.46-6-3.63a5.83,5.83,0,0,1,1.85-6.81A75.57,75.57,0,0,1,318.82,132a5.8,5.8,0,0,1,5.94,9.74c-4,3.09-8.48,5.33-12.91,7.68A4.32,4.32,0,0,1,310.25,149.72Z"/><path class="cls-4" d="M82.21,272.05a5.08,5.08,0,0,1,2.33-4.6,96.77,96.77,0,0,1,12-7,5.83,5.83,0,0,1,7.67,2.16,6,6,0,0,1-1.9,8.07,114.52,114.52,0,0,1-12,6.86C86.4,279.4,82.28,276.46,82.21,272.05Z"/><path class="cls-4" d="M320.19,278.24a86.9,86.9,0,0,1-13.74-7.67,6,6,0,0,1-1.85-7.78,5.8,5.8,0,0,1,7.59-2.39c4.12,2.09,8.06,4.53,12,6.94,2.32,1.43,2.92,3.75,2.33,6.26a5,5,0,0,1-4.67,4.19A11.55,11.55,0,0,0,320.19,278.24Z"/></g></g></svg>