<svg xmlns="http://www.w3.org/2000/svg" viewBox="0 0 383.26 383.24"><defs><style>.cls-1{fill:#888;}.cls-2{fill:#787878;}.cls-3{fill:#010101;}</style></defs><g id="Camada_2" data-name="Camada 2"><g id="Camada_1-2" data-name="Camada 1"><path d="M99.56,0c.2.57.72.57,1.19.7,7.69,2,12.94,6.78,15.34,14.35,3.31,10.41,6.42,20.89,9.59,31.34,1.73,5.69,3.43,11.39,5.12,17,1.5.73,2.89.39,4.23.39q110.19,0,220.4,0c4.92,0,9.71.59,14.07,3,8.64,4.79,13.21,12.17,13.75,22,0,.38,0,.75,0,1.13V293.52a25.16,25.16,0,0,1-7.37,18.19c-4.95,5.08-11.08,7.41-18.06,7.73-1.5.07-3,0-4.49,0H212.63a12.35,12.35,0,0,0-4.3.29l5.33,17.77c.92,3.09,1.85,6.18,2.73,9.28a21.14,21.14,0,0,1-14.08,25.79c-11,3.48-22.13,6.58-33.2,9.84-4.31,1.27-8.61.88-12.91-.12q-24.13-5.6-48.29-11.15A25.67,25.67,0,0,1,95.05,364c-14.94-15.15-27.66-32-39-50a363.94,363.94,0,0,1-41.78-94,358.51,358.51,0,0,1-10.68-49.9,309.52,309.52,0,0,1-3-30.83c0-2.56.79-5.16-.62-7.6V110c.21-.27.6-.53.6-.79A58.53,58.53,0,0,0,.65,101c.26-3.22.54-6.44.78-9.67.59-8.06,1.92-16,3.29-24a26,26,0,0,1,7-14.11q17.47-17.91,34.8-36a25.49,25.49,0,0,1,11.6-7.08Q71.52,6.32,84.85,2.22C87,1.55,89.4,1.43,91.32,0ZM84.67,15.63c5,16.48,9.88,32.5,14.71,48.53a13.79,13.79,0,0,1,1,5.1,6.19,6.19,0,0,1-5.73,5.84c-3.62.25-5.76-1.45-7.07-5.77q-7.14-23.52-14.24-47c-.31-1-.37-2.17-1.42-2.91-3.23,1-6.4,2.11-9.65,2.87a13,13,0,0,0-6.62,3.91Q38.52,43.94,21.3,61.65a14.7,14.7,0,0,0-4,7.82,269.8,269.8,0,0,0-4.45,41.94,332.73,332.73,0,0,0,2.69,51.83A335.82,335.82,0,0,0,22.7,202.1c10.53,42.63,27.73,82.31,52.92,118.4a269.28,269.28,0,0,0,27.72,33.78,15.39,15.39,0,0,0,7.94,4.52c16,3.56,32,7.32,47.94,11,1.45.33,2.88,1,4.4.68a115.25,115.25,0,0,0,13.74-3.9c-5.13-17.05-10.13-33.69-15.19-50.32a10,10,0,0,1-.52-3.28,6,6,0,0,1,4.13-5.67,6.17,6.17,0,0,1,6.81,1.71,8.77,8.77,0,0,1,1.84,3.62q4.11,13.74,8.25,27.46c2.3,7.6,4.62,15.18,7,23,3.13-1,6.13-1.72,9-2.83,4.6-1.78,6.53-5.81,5.31-10.52-.19-.72-.4-1.44-.61-2.16q-9.25-30.66-18.52-61.32c-.9-3-1.72-6-2.85-8.85a8.44,8.44,0,0,0-9.86-5.49c-3,.65-5.92,1.69-8.67,2.5a2,2,0,0,0-.1,1.71c.65,2,1.35,4,1.9,6,.91,3.34.07,6.08-2.23,7.71a6.15,6.15,0,0,1-9.56-2.8c-1.1-2.74-1.84-5.64-2.71-8.37a3,3,0,0,0-2.29.12c-10.24,3-20.49,6-30.72,9.07a14.29,14.29,0,0,1-15.07-3.72c-3.93-3.84-7.73-7.79-11.29-12-15.16-17.79-25.64-38-32.21-60.43A173.92,173.92,0,0,1,52.6,180a146.32,146.32,0,0,1-.37-28,178.89,178.89,0,0,1,3.71-23.94,13.64,13.64,0,0,1,10-10.55c6.76-2.07,13.58-4,20.35-6,4.24-1.3,8.62-2.19,12.73-4-.18-.79-.28-1.41-.46-2-.6-2-1.37-4-1.84-6.06a6.43,6.43,0,0,1,4.6-7.85c3-.87,6.09.73,7.49,4a23.72,23.72,0,0,1,1.09,3.17,18.46,18.46,0,0,0,1.81,5.23c2.67-.78,5.16-1.48,7.65-2.22a9.59,9.59,0,0,0,4.43-2.63c2.7-2.93,2.61-6.22,1.54-9.77q-8.65-28.51-17.21-57c-1.33-4.4-2.57-8.82-4-13.18S98.5,12,94.28,12.9C91.14,13.55,88.1,14.64,84.67,15.63ZM359.19,77.35a2,2,0,0,0-1.83-.78H134.87C136,80.45,137,83.86,138,87.29A18.52,18.52,0,0,1,139,95c-1.31,9.51-6.37,16-15.69,18.87-2,.6-3.9,1.25-5.93,1.91a8.94,8.94,0,0,0,2.61,3q30.72,28.49,61.46,56.93,13.44,12.45,26.91,24.88c5.54,5.11,12.51,5.13,18.14.11,1.49-1.32,3-2.68,4.41-4L316.65,117,356.4,80.12C357.36,79.23,358.27,78.27,359.19,77.35Zm-111.45,121c-4.28,4-8.38,7.58-12.29,11.4a25.75,25.75,0,0,1-36,0c-3.32-3.21-6.76-6.29-10.16-9.41-.79-.73-1.46-1.66-2.67-1.89l-77.36,74.28c1.31,1.2,2.11,2.35,3.68,3,.86-.19,1.95-.37,3-.67,6-1.74,11.9-3.52,17.86-5.26,11.8-3.44,23.59-6.9,35.4-10.28a19.34,19.34,0,0,1,13.48,1.27c6.87,3.06,10.62,8.65,12.65,15.71,2.67,9.3,5.54,18.55,8.31,27.83a3.85,3.85,0,0,0,1.37,2.32H355.28c.63,0,1.25,0,1.87,0,.81-.05,1.78.21,2.25-1.1Q303.63,252,247.74,198.38ZM369.4,297.49c1.55-2,1.09-4.09,1.09-6q0-99.85,0-199.73c0-.87,0-1.74,0-2.62a6.46,6.46,0,0,0-1.05-3.7L257.11,189.71ZM100.65,263.23l76.6-73.55c-2.32-2.71-71.81-67.09-75-69.55L85.53,125c-5.68,1.68-11.36,3.38-16.82,5C56.44,175.77,72.55,229.94,100.65,263.23Z"/><path class="cls-1" d="M0,101.05A2,2,0,0,0,.65,101a58.53,58.53,0,0,1-.05,8.27c0,.26-.39.52-.6.79Z"/><path class="cls-2" d="M0,131.74c1.41,2.44.65,5,.62,7.6a2.6,2.6,0,0,1-.62-.11Z"/><path class="cls-3" d="M217.18,102.29H169a15.53,15.53,0,0,1-4.45-.37,6.27,6.27,0,0,1,0-12.21,13.2,13.2,0,0,1,3.7-.38q49,0,97.95,0a14.12,14.12,0,0,1,4.06.48,6.28,6.28,0,0,1,0,12,15.91,15.91,0,0,1-4.81.48Q241.29,102.27,217.18,102.29Z"/><path d="M345,191.63V149.74c0-1,0-2,0-3a6.1,6.1,0,0,1,5.82-6.11,6.33,6.33,0,0,1,6.82,5.53,18.58,18.58,0,0,1,.08,3q0,42.45,0,84.91a10.75,10.75,0,0,1-.61,4.76,6.31,6.31,0,0,1-7,3.71,6.1,6.1,0,0,1-5.08-5.65c-.1-1.11-.05-2.24-.05-3.36Z"/></g></g></svg>