<svg xmlns="http://www.w3.org/2000/svg" viewBox="0 0 383.29 344.34"><defs><style>.cls-1{fill:#727272;}.cls-2{fill:#7c7c7c;}</style></defs><g id="Camada_2" data-name="Camada 2"><g id="Camada_1-2" data-name="Camada 1"><path d="M.63,59.78A65.32,65.32,0,0,1,14.89,25.87C25.74,12.28,39.89,4.09,56.94,1A62,62,0,0,1,68.1,0q123.48,0,247,.05a68.23,68.23,0,0,1,66.37,52.67,65,65,0,0,1,1.82,15.17c0,45,.1,90.05-.05,135.08a68.13,68.13,0,0,1-52.74,65.89,75.9,75.9,0,0,1-16.64,1.9q-28.24,0-56.5,0h-3.79c-5.37,7-10.69,13.88-16,20.79l-36.12,47.17a15.48,15.48,0,0,1-3,3.29c-5.23,3.8-11.75,2.88-15.86-2.42-7.26-9.35-14.43-18.76-21.63-28.16l-30.87-40.28c-1.37-.7-2.77-.37-4.11-.38-19,0-37.92,0-56.88,0A67.49,67.49,0,0,1,43.58,266C22.34,257.3,8.7,241.89,2.31,220a39.6,39.6,0,0,1-1.67-8.78c0-1.31.66-2.74-.64-3.83V63.63C1.32,62.53.63,61.1.63,59.78Zm191,254.79c1.12-1.41,2-2.47,2.81-3.54q21.91-28.63,43.82-57.27a15.06,15.06,0,0,1,4.63-4.26c2.17-1.2,4.54-1.19,6.91-1.19h63.6a54.67,54.67,0,0,0,11.48-1.22c20.07-4.3,35.81-22.34,35.9-43.87.18-45.28.05-90.55.05-135.82a42.11,42.11,0,0,0-1.93-12.11,46.27,46.27,0,0,0-44.49-32.85q-122.71.11-245.44,0A54.53,54.53,0,0,0,61.5,23c-20.28,2.73-38.85,20.79-39,44.31-.23,45.39-.08,90.79-.06,136.19A42.05,42.05,0,0,0,24.56,216a46.2,46.2,0,0,0,44.51,32.31c21.58,0,43.15.07,64.73,0A13.08,13.08,0,0,1,145.24,254c5.33,7.21,10.89,14.26,16.34,21.38C171.5,288.31,181.41,301.26,191.59,314.57Z"/><path class="cls-1" d="M.63,59.78c0,1.32.69,2.75-.63,3.85V59.89C.21,59.84.42,59.81.63,59.78Z"/><path class="cls-2" d="M0,207.35c1.3,1.09.63,2.52.64,3.83-.21,0-.42-.07-.64-.09Z"/><path d="M191.88,77.32a65.2,65.2,0,0,1,12.22-9.9c31.27-18.62,72.8-2.46,80.83,35.42,3.92,18.51-1,35.23-14.33,48.78-23.24,23.67-46.87,47-70.29,70.45-5.3,5.32-12.46,5-17.77-.37-22.92-23.11-46-46.06-69-69.09-12.38-12.39-17.91-27.43-16.07-44.77A53.54,53.54,0,0,1,142,60.57c18.47-2.93,34.42,2.22,47.83,15.25.45.44.91.85,1.38,1.26A3.45,3.45,0,0,0,191.88,77.32Zm-.31,121.41a13.44,13.44,0,0,0,1.15-.94q30.94-30.93,61.87-61.9a29.26,29.26,0,0,0,8.91-24C262.4,99,256,89.44,244,84.59c-12.41-5-23.93-2.66-33.86,6.43-3.4,3.11-6.53,6.52-9.83,9.74-5.51,5.4-11.91,5.37-17.44-.06-3.11-3.06-6.14-6.2-9.27-9.24-8.55-8.32-18.76-11-30.24-8.33-16,3.7-26.41,20.39-23.14,37,1.33,6.71,4.72,12.17,9.51,17q29.94,29.83,59.79,59.75C190.12,197.39,190.76,198,191.57,198.73Z"/></g></g></svg>