<svg xmlns="http://www.w3.org/2000/svg" viewBox="0 0 1139.62 771.61"><defs><style>.cls-1{fill:#010101;}.cls-2{fill:#100a08;}.cls-3{fill:#989e50;}.cls-4{fill:#f8b049;}.cls-5{fill:#050605;}.cls-6{fill:#070907;}.cls-7{fill:#060706;}.cls-8{fill:#040404;}.cls-9{fill:#020202;}.cls-10{fill:#050405;}.cls-11{fill:#020101;}.cls-12{fill:#0e0805;}.cls-13{fill:#0d0706;}.cls-14{fill:#0e0908;}.cls-15{fill:#070906;}</style></defs><g id="Camada_2" data-name="Camada 2"><g id="Camada_1-2" data-name="Camada 1"><path class="cls-1" d="M215.38,362.37a23.12,23.12,0,0,1-.15-7.57L269.48,328a15.47,15.47,0,0,0-.86-8.14l-53.39,26.24a18.48,18.48,0,0,1-.47-7.47l53.87-26.54a27.77,27.77,0,0,0-.2-8.3c-9.38,4-18,8.73-26.89,13s-17.86,8.75-27.1,13.28c-.91-2.58-.48-5-.46-7.48l53.67-26.38a20.86,20.86,0,0,0-.13-8.6L83.17,378.34c-3-.14-4.87-1.91-7.09-3,.09-1.91,1.62-2.05,2.72-2.59q25-12.33,50-24.61c4.77-2.35,9.52-4.72,14.28-7.05a3.57,3.57,0,0,0,2-1.79l-7.3-4.2-71,34.94-7.52-4c23.87-11.92,47.13-23.07,70.64-34.92a31.12,31.12,0,0,0-8.15-4.49L51.26,361.26c-2.76-.63-4.95-2.08-7.67-3.92,23.65-11.65,46.94-23.11,70.45-34.7-2.34-2.28-5.17-3-7.66-4.85L35.43,352.7c-2.58-.78-4.71-2.36-7.75-3.93l70.73-34.83a35.06,35.06,0,0,0-8.33-4.58L19.33,344.23a39.81,39.81,0,0,1-7.47-4.05l70.39-34.65c-2.06-2.37-4.84-3-7.53-4.79C51.8,311.56,29.11,323.23,6.09,334.32c-2.38-1.21-3.24-3.27-4-5.7l64.78-31.86-6.48-5.44L.54,320.66c-1.22-3-.14-5.53.91-8.11l54.49-26.84c-.25-2.77-1.71-4.86-2.3-7.45l-40.76,19.9c2.13-3.79,5.56-6.16,8.67-8.83a90.93,90.93,0,0,1,10.2-8c3.49-2.21,7.42-3.71,11.14-5.57s7.7-3.9,11.35-5.76c1-2.2,2-4.1,2.76-6.12,2.3-6.64,7.78-10.41,12.8-14.65C80,240.65,91.32,233.66,102.16,226c4.75-3.36,9.75-6.44,14.14-10.22,5.41-4.66,10.31-9.89,15.41-14.9,1.66-1.63,3.2-3.42,5.44-4.29,8.23-3.18,14.85-8.69,21.25-14.55a95.08,95.08,0,0,0,8.79-8.72l-14.79,7c4.37-6.16,8-12.76,15.65-15.3,2.34-.78,4.39-2.4,6.72-3.22,10.67-3.76,17.63-12,24.39-20.66l-25.46,12.4a99.8,99.8,0,0,1,7.87-11.12c.93-1.25,2.46-1.62,3.78-2.28,7.72-3.85,15.38-7.83,23.19-11.47a20.21,20.21,0,0,0,7.74-6c2.33-3,4.8-5.93,7.05-9.18-10.63,4.16-20.6,9.77-31.17,14.17,3.47-5.64,6.72-11.09,13.36-13.91,8.7-3.69,17-8.31,25.51-12.45a11.55,11.55,0,0,0,4.91-4,68.56,68.56,0,0,0,5.73-9.69l-16,7.63-.33-.5,19.4-16.35a1.26,1.26,0,0,1,.42-.27c5.64-1.84,9.06-6.43,13-10.4a54.19,54.19,0,0,1,9-7.06c14.22-9.24,28.53-18.33,42.69-27.67,7.62-5,15.39-9.84,22.68-15.42,8.15-6.24,17.61-9.71,27.82-11.31A124.52,124.52,0,0,1,393.15,5c1,.11,2,.11,3,.15,34.45,1.26,68.92,1.31,103.39,1.13,8.49,0,17,0,25.48-.26,18.48-.59,37-.6,55.44-.65a32.56,32.56,0,0,1,16.3,3.85C603.57,13,607,19,607.63,26.59,609,41.81,610.2,57,611.5,72.27c.27,3.23-.6,6.78,2.77,9.5,6.34-3,12.89-6.06,19.42-9.16q36.9-17.49,73.76-35c6.74-3.22,13.28-6.84,20-10.17A246.52,246.52,0,0,1,790.32,6.11,334.16,334.16,0,0,1,828.25,1,420,420,0,0,1,879.66.58a203.3,203.3,0,0,1,47.55,7.64c12.5,3.62,24.27,8.94,35.74,15,16.74,8.81,33,18.5,50.12,27.05a74.65,74.65,0,0,1,26-2c14.92,1.28,25.5,8.73,31.3,22.55a52.34,52.34,0,0,1,4.17,17.77c.16,3.12.86,6.24.83,9.41,0,4.31.59,8.7-2.36,12.26,4.45,7.54,8.63,14.72,12.9,21.83,7.4,12.31,11.28,25.68,12.68,39.94a129.12,129.12,0,0,1,.14,26.37,62.36,62.36,0,0,0-.27,7.49c.22,11.83-1.15,23.61-1.14,35.43,0,3-1.31,5.88-.71,8.78.58.95,1.42.94,2.26,1,17.72,1.16,27.29,11.95,31.45,26.52,2.34,8.22,2.4,16.72,2.78,25.15a12.32,12.32,0,0,1-2.2,8c-4.59,6.14-8,13-12.31,19.23.11,1.47,1.22,2,2.08,2.75,10.21,8.57,16.78,19.48,18.36,32.61,1.82,15.26-.15,30.16-8.61,43.58-3.63,5.76-7.39,11.44-10.84,17.31a61.15,61.15,0,0,1-26.87,24.52c-12.13,5.82-24.86,9.24-38.5,8.36-11.12-.72-20-5.39-26.64-14.44-.66-.91-1-2.15-2.26-2.66-2.34,2.32-3.88,5.23-5.54,8a71.13,71.13,0,0,1-27,26.67,17.33,17.33,0,0,0-5.07,4.72,531.24,531.24,0,0,1-47.23,52c-8.29,8-17.72,14.54-26.86,21.46-27.59,20.92-56.68,39.6-85.94,58-11.25,7.09-22.28,14.52-33.64,21.43-5.8,3.53-12.06,6.32-18.17,9.34q-39.29,19.41-78.61,38.74c-16.23,8-32.54,15.82-48.7,24-4.74,2.39-9.45,3.92-14.77,3.47-2.14-.19-4.31,0-6.68-.72l92.42-45.52-.18-.7c-4.68.43-9.35,1-14,1.25s-8.64,1.94-12.68,3.94c-26.6,13.21-53.25,26.3-79.83,39.54-3.74,1.86-7.45,1.23-11.22.89a26.86,26.86,0,0,1-4.13-1.21L680.9,666.3c-3-.94-5.36-.46-7.64-.66s-4.73-.84-6.93-.41c-2.37.46-4.57,1.88-6.8,3-24,11.8-48,23.55-71.9,35.49-4.71,2.35-8.57.42-13.57-1.08,26.22-13.23,52-25.48,77.29-39.18-3.37-.58-6.74-1.18-10.12-1.72-1.76-.27-3.25.64-4.72,1.37q-26.13,12.85-52.24,25.75c-7.14,3.52-14.3,7-21.53,10.54l-4.25-.74a13.85,13.85,0,0,0-1.47.69c-3.36,2.15-6.81,4.18-10,6.51-7.88,5.65-16.72,9.53-25.31,13.85-9.63,4.84-19.4,9.41-29,14.24a31.15,31.15,0,0,1-9.72,3.51,139.67,139.67,0,0,1-16.45,1.66l162.36-79.93a36.28,36.28,0,0,0-9.76-3.24c-1.21-.27-2.23.47-3.27,1-10.72,5.3-21.47,10.55-32.15,15.92a69.28,69.28,0,0,0-8.12,4.84,93.21,93.21,0,0,1-29.14,13.61,15,15,0,0,0-2.76,1.13L473,727.18c-10.57,5.21-21.16,10.37-31.69,15.65a23.26,23.26,0,0,1-6.69,1.77,91.44,91.44,0,0,1-15.5,1.41L520,696.29c-3.65-1-6.49.33-9.41.57a60.66,60.66,0,0,0-22.74,6.51c-29.8,15-59.83,29.55-89.74,44.36a37.37,37.37,0,0,1-15.24,4.11c-3.13.12-6.14,1.57-10.24.64L473.4,702.85l-.24-.55c-6.71.9-13.43,1.81-20.15,2.68a14.59,14.59,0,0,0-4.69,1.57q-48.9,24.09-97.8,48.2a26.74,26.74,0,0,1-8.41,2.85,143.57,143.57,0,0,1-16,1.4l100.68-49.59c-1.9-.82-3.29-.26-4.64-.09-3.78.48-7.55,1.08-11.33,1.57a35.14,35.14,0,0,0-11.39,3.21q-47.29,23.45-94.65,46.77A32.05,32.05,0,0,1,294,764.09c-4.9.56-9.68,2.13-14.51,3.31a6.85,6.85,0,0,1-3.8.06l105-51.71c-.06-.18-.11-.35-.17-.52-7,.89-14,1.75-21,2.7a11.18,11.18,0,0,0-3.26,1.17q-36.66,18-73.28,36.1c-10.12,5-20.42,9.63-30.35,15-4.72,2.53-8.34,1.49-13-1.34l88.47-43.6c-3.51-.94-6.11.59-8.77.95-4.27.57-8.46,1.73-12.81,1.67-2,0-3.46,1.07-5.08,1.87q-25,12.31-50,24.66c-5.49,2.7-11,5.31-16.39,7.89-2.43-1.55-1.93-4-3-6.08l62.11-30.68-5.49-5.9-57.3,28.19c-.85-2.37-.53-4.62-.81-7.31l55.16-27.15a11.73,11.73,0,0,0-1.46-7.92C266.3,714.24,248.39,723,230.11,732V724.3l53.71-26.41v-8.44c-18.44,8.55-36,17.62-53.95,26.24-1.4-2.51-.47-4.83-.89-7.19l54.59-26.91a22.57,22.57,0,0,0-.43-8.11c-6.39,2.31-12,5.84-18,8.54s-11.91,5.86-17.86,8.79-11.92,5.83-18,8.82c-.85-2.39-.56-4.68-.55-7.35l54-26.65v-8.18c-6.54,2.36-12.18,5.69-18,8.47-6.15,2.92-12.23,6-18.33,9l-18,8.83c-.67-2.59-.35-4.9-.42-7.44l53.64-26.5c.64-2.64.15-5.23.3-8.68l-53.43,26.19c-1.3-2.2-1.11-4.35-1.35-7l54.42-26.84a11.86,11.86,0,0,0-1.23-8l-53,26.07c-.83-2.32-.36-4.59-.53-7.36,17.68-9.09,35.87-17.5,53.89-26.7.49-2.57.14-5.19.11-8.39-18.48,8.41-36,17.83-54.3,26.26-.78-2.59-.42-4.72-.56-7.24l54.42-26.81c-.13-2.71-.25-5.16-.4-8.27-18.11,8.59-35.62,17.43-53.5,26.1-1.57-2.05-.82-4.4-1.55-6.89l54.72-26.94c.56-2.65,0-5.25.14-8.68L225.5,603.17c-1.18-2.45-.4-4.73-.88-7.18l54.1-26.75a26.68,26.68,0,0,0-.19-8.48l-53.94,26.53c-.82-2.64-.62-4.77-.69-7.38l54.23-26.71c.92-2.91.28-5.4-.54-8.35l-53.38,26.23c-.93-2.5-.25-4.66-1.37-7l54.74-27a28.51,28.51,0,0,0-.08-8.39c-18.3,8.47-35.88,17.61-54,26.28-1-2.37-.43-4.65-.65-7.28l53.78-26.51a20.68,20.68,0,0,0-.08-8.54L223,538.88c-1.28-2.39-.93-4.64-.77-7.21l54.39-26.89c.05-2.73.29-5.16-.85-8.12L221.92,523c-.13-2.64-.23-4.77-.35-7.44l54-26.65a22.81,22.81,0,0,0-.11-8.38c-18.28,8.47-35.8,17.82-54,26.27-.89-2.48-.49-4.73-.41-7.35l54.16-26.7a28.85,28.85,0,0,0-.54-8.33l-53,26c-2.33-2.08-1.32-4.48-1.57-6.94l54.47-26.8a27.12,27.12,0,0,0-.25-8.28c-18.48,8.47-36,17.68-54.26,26.34v-7.62l53.81-26.52c0-2.92.28-5.55-.31-8.38-18.08,8.69-35.81,17.64-53.86,26.33-1-2.69-.68-4.82-.73-7.25l54-26.66a26.46,26.46,0,0,0-.3-8.43l-53.27,26.14c-1.41-2.36-1.2-4.48-1.25-7l54.4-26.9a25.34,25.34,0,0,0-.19-8.47L218.5,426.43c-1.05-2.5-.5-4.66-.94-7.22l54.1-26.66c.49-2.72.18-5.33.06-8.65L217.8,410.39c-1.2-2.35-.81-4.47-.94-7.11,17.94-9.27,36.46-17.76,54.31-26.95,1-2.9.05-5.28-.45-8.27l-53.4,26.13a12.91,12.91,0,0,1-1-7.12l54.2-26.74a20.8,20.8,0,0,0-.22-8.44l-54,26.41a23.64,23.64,0,0,1-.36-7.42l53.58-26.49c.95-2.8,0-5.38.49-8.76Z"/><path class="cls-2" d="M666.3,706.25l104.8-51.56c.24,1.62-.89,1.78-1.54,2.2-14,8.91-27.9,18-42.09,26.59A255.78,255.78,0,0,1,696.34,699c-9.11,3.94-18.82,6.16-28.64,7.74C667.44,706.78,667.14,706.55,666.3,706.25Z"/><path class="cls-3" d="M351.88,175.25V156.79c-1.78-.92-2.33.16-2.95.81-12.39,13.22-25.19,26.05-37.07,39.76q-11.43,13.19-23.35,25.95C282.27,230,276,236.68,269.37,243a273.26,273.26,0,0,1-42,32.73,15.4,15.4,0,0,1-5.56,2.68c-2.77-.62-5.25-2.35-7.85-3.75q-33-17.89-66-35.93c-8.32-4.57-9.61-9.52-2.27-16.87,6.57-6.59,14.16-12,21.67-17.5,11.68-8.48,23.65-16.55,35.25-25.14,9.2-6.81,18.21-13.89,26.93-21.33A579,579,0,0,0,273,117.31a541.91,541.91,0,0,0,40-47c7.71-10.2,14.52-21,22.25-31.19a41.2,41.2,0,0,1,25.12-15.74,82.92,82.92,0,0,1,24.72-1.85c10.3,1,20.61.44,30.9,1,30.77,1.6,61.56.47,92.35.7,8.82.07,17.67.34,26.47-.21,14-.88,27.94-.33,41.91-.69a27.32,27.32,0,0,1,10.8,1.54,6.63,6.63,0,0,1,2.14,4.82c-.1,3.5.72,6.94.83,10.39.32,10.62,1.79,21.15,2.39,31.75.51,8.92,1.2,17.86,2,26.76.6,6.31.65,12.59.94,19.29-5.32.82-10.49,1.55-15.64,2.43-5.81,1-12,.8-16.75,4.81a30,30,0,0,0-13.39-.2c-5.16,1.07-10.44,1.55-15.66,2.36-8.13,1.28-16.26,2.66-24.4,3.91a13.45,13.45,0,0,0-9.26,6.06c-2.78,3.93-5.66,7.79-8.53,11.65a10.41,10.41,0,0,1-3.37,3.25,55,55,0,0,0-20.49-9.24,53.25,53.25,0,0,0-11.72-1.72A118.74,118.74,0,0,0,432.42,142c-9.7,1.85-19.58,2.8-29.36,4.26q-12.71,1.9-25.37,4.08c-4.48.77-7.76,3.47-10.42,7.09q-5.46,7.43-11.19,14.63C355.2,173.15,354.49,174.61,351.88,175.25Z"/><path class="cls-3" d="M760.17,525.74c.75.67,1.15.86,1.19,1.1,1.13,7.13,7.7,9.21,13.11,7.74,9.08-2.46,18.2-4.74,27.3-7.11,3-.79,6-1.81,9.1-2.36a19.76,19.76,0,0,0,7.83-3.57c4.55,1.27,8.87-.92,13.32-1.87,6.13-1.31,12.13-3.26,18.23-4.73a18.07,18.07,0,0,0,12.36-9.11,132.57,132.57,0,0,1,10.6-16.23,10.82,10.82,0,0,0,2.61-5.31c1.6.41,2,1.76,2.59,2.88a86.24,86.24,0,0,1,4.74,9.28c2.51,6.56,7.92,7.43,13,6.35,7.43-1.59,14.72-3.81,22-5.81,3.6-1,5.84-3.6,7.72-6.64,3-4.78,6-9.53,9.13-14.53a47.53,47.53,0,0,0,26.44,9.27c-1.6,2.11-2.82,4-4.3,5.64-10.24,11.4-20.79,22.5-32,33-8.75,8.2-18.66,14.93-28.66,21.47-11.67,7.62-23.29,15.34-35.27,22.45-9.87,5.85-19.07,12.72-29.12,18.23A140.76,140.76,0,0,1,793.65,600c-17.66,3.8-35.54,4.42-53.49,3.9a143.87,143.87,0,0,1-28.94-4.15c-18.19-4.33-35.82-10.48-53.31-17.07-8-3-16.14-5.83-24.21-8.76-.92-.33-1.79-.82-3.28-1.51,6.16-1.58,11.66-3.15,17.23-4.38a17.89,17.89,0,0,0,12.08-8.69c3.9-6.36,8.29-12.43,12.76-18.42a16,16,0,0,0,3.16-9.66c.29-10-1.07-19.92-1.09-29.91,0-5.67-6.69-10.31-12.57-8.94-9.81,2.27-19.57,4.74-29.35,7.15-2.88.72-5.71,1.6-8.6,2.27-1.06.25-2.28.64-3.5-.54,2.66-5.94,5.33-12,8.06-18q15.35-33.69,30.72-67.36c3.57-7.83,7.12-15.67,10.72-23.48a21.88,21.88,0,0,0,1.89-11c-.54-8.3-.32-16.64-.29-25a17.33,17.33,0,0,0-1-6.33,11.07,11.07,0,0,0-12.44-6.72c-19.51,4.15-39,8.38-58.53,12.46-15.16,3.17-30.36,6.16-45.54,9.25a13.1,13.1,0,0,0-3.78,1.17,15.7,15.7,0,0,1-7.7,1.61c-4.67.07-9.07,1.69-13.59,2.6-13.42,2.71-26.78,5.66-40.17,8.49q-17.89,3.77-35.82,7.48-6.28,1.32-12.6,2.56a6,6,0,0,0-4,2.64c-4.34,6.08-8.81,12.05-13.36,18.23-2.15-.36-3.88-1.69-5.79-2.54a73.39,73.39,0,0,0-21-5.57c-10.12-1.28-19.74.84-29.46,2.71-.81.16-1.61.39-2.43.49a20.11,20.11,0,0,1-2.24,0c-1.56-6.1-1.43-12.31-1.3-18.51,14.73-1.54,28.73-5.33,42.93-8.12q13.11-2.58,26.19-5.3c15.39-3.23,29.2-9.61,40.79-20.48a96.89,96.89,0,0,0,15.95-19.07c0,5.33-.11,9.48,0,13.62.23,7.41,5.53,11.32,11.38,11.1a36,36,0,0,0,6-.33c14-2.89,28-5.93,42.09-8.81a16.39,16.39,0,0,0,8-4c4.54,2,9.09.8,13.61-.13,12.43-2.56,24.83-5.27,37.26-7.83a14.39,14.39,0,0,0,9.26-6c4.88-6.7,9.35-13.71,14.68-20.1a11.2,11.2,0,0,0,2.59-7.87c-.35-7-.11-13.92-.71-20.91-.68-7.75-.16-15.61-.16-23.65a76.09,76.09,0,0,0,29.59-17.13c.63,3.74-.55,7.15-1.06,10.51-1.33,8.82-2.63,17.64-3.75,26.49-1,8.19-2.66,16.31-3.66,24.5-.49,4.1-1.26,8.16-1.41,12.34-.19,5.57,5.19,9.48,9.4,9.8a30.11,30.11,0,0,0,8.86-1c7.73-1.72,15.47-3.41,23.25-4.87a14.54,14.54,0,0,0,10.22-7.15c1.88-3.07,4.09-5.94,6.15-8.91.55.42,1,.57,1,.79,1.14,8.05,7.26,10.3,14.44,8.95,11.67-2.2,23.25-4.88,34.88-7.31,3.41-.72,6.82-1.35,9.58-3.69,5.22,2.09,9.91-.45,14.69-1.26,6.16-1.05,12.22-2.75,18.42-3.66a13.78,13.78,0,0,0,9.8-6.16c5.24-7.67,10.49-15.33,15.92-23.27,2.24,4.37,4.43,8.7,6.67,13,3.44,6.64,7.25,8.32,14.65,6.66,6.1-1.38,12.21-2.78,18.36-3.94a30,30,0,0,0,8-2.95,10.48,10.48,0,0,0,5.23.44q12.13-2.44,24.28-4.84a15,15,0,0,0,10.65-7.35c1.66-2.79,3.27-5.76,6.1-8.45.78,4.24,2.36,7.46,6.32,9a11.43,11.43,0,0,0,6.79.61c10.64-2.27,21.29-4.54,32-6.56,4.68-.89,8.46-2.65,10.76-7,.91-1.73,2.16-3.29,3.42-5.18,9.27,5.14,19.36,5.07,29.23,4,17.56-1.9,33.46-8,45.82-21.34,3.64-3.92,6.19-8.61,9.1-13s6-9.15,9-13.75c3.62-5.62,5.27-12,7.57-18.68.6,3.22-.61,5.89-.56,8.67.11,6.16.19,12.35-.25,18.48-.54,7.64-.23,15.32-1,22.9-.49,4.71.14,9.67-1.81,14.31-3.63,1.19-7.24,2.31-10.8,3.55-14,4.89-24.19,14.13-31.49,26.85-1.39,2.42-2.53,5.06-5,7.17-2.89-3.2-5.57-6.48-9-9a44,44,0,0,0-19-8c-16.5-2.85-31.12,2-44.5,11.12C948.92,290.08,942.4,298.08,937,307c-.33.55-.68,1.1-1.62,2.6,0-4,0-6.88,0-9.81a13.2,13.2,0,0,0-2.17-7.51c-2.93-4.51-7.38-4.82-12-4-7.93,1.47-15.8,3.22-23.69,4.91A15.18,15.18,0,0,0,887,300.69c-2.47,4.26-5.43,8.24-8.58,12.94-3.45-6-5.23-13-14.59-13.17-9.82,2-21,4.34-32.09,6.68a12.85,12.85,0,0,0-8.82,5.81c-3.88,6.18-8,12.24-12.18,18.21a15.86,15.86,0,0,0-3.13,10.72,22.05,22.05,0,0,1-.65,7.52c-.81-4-1.6-7.94-2.44-11.9s-2-8-2.66-12.05c-1.47-8.54-7.33-10.43-14.27-9.15-11,2-22,4.52-32.92,6.9a16.4,16.4,0,0,0-11.1,7.63c-4,6.47-8.55,12.63-13,18.84a11.13,11.13,0,0,0-1.83,4.56c-.91,5.2-1.45,10.47-2.18,15.71-.86,6.22-1.8,12.43-2.65,18.65s-1.54,12.14-2.35,18.21c-.77,5.72-1.59,11.44-2.4,17.15-.85,6.05-1.77,12.1-2.58,18.15-.76,5.74-1.36,11.5-2.15,17.23-.89,6.55-1.9,13.09-2.86,19.64-1.26,8.67-2.57,17.33-3.74,26-.87,6.39-1.52,12.81-2.31,19.21a78.39,78.39,0,0,1-1.37,9.32,28.68,28.68,0,0,0-.61,7.42,8.9,8.9,0,0,0,8.72,9,18.76,18.76,0,0,0,5.46-.27c8.48-2.15,16.88-4.61,25.38-6.69A16.43,16.43,0,0,0,754,535.06C755.86,531.93,758,529,760.17,525.74Z"/><path class="cls-4" d="M308.87,427.92c4.93-2.49,9.83-2.67,14.46-3.75,11.62-2.7,23.33-4.95,35-7.42,6.82-1.44,13.55-3.47,20.44-4.31,13.23-1.62,26.21-1,37.78,7.05,10.11,7,15.74,16.64,16.12,28.85C433.4,472,434,495.61,434,519.26c0,6.65.21,13.32.61,20,1.31,21.65-7.81,38.6-23.58,52.52-10.8,9.54-23.45,15.33-37.52,18.44-10.67,2.36-21.18,5.44-31.76,8.2-8.17,2.13-16.35,4.29-24.54,6.36a7.54,7.54,0,0,1-4.47.26c-1.46-1.3-.83-3.08-.85-4.65-.15-10.82,0-21.65-.36-32.47-.73-20.3-.24-40.63-1-60.92-.84-22.81-.38-45.62-1-68.42-.21-7.82-.43-15.64-.61-23.46C308.83,432.76,308.87,430.44,308.87,427.92Z"/><path class="cls-4" d="M382.39,352.59c-1.09-1-.77-2.28-.8-3.39-.28-10.65-.59-21.29-.76-31.94-.47-29.79-.61-59.6-1.43-89.38-.48-17.31-.4-34.63-.88-51.93-.14-5-.68-9.93-.38-14.85,2.27-2.89,5.63-2.25,8.38-2.73,12.4-2.2,24.84-4.23,37.33-5.87,8.87-1.17,17.6-3.38,26.63-3.49,7-.09,13.93.58,20.53,3.15,14.63,5.7,23.84,16.07,26.45,31.66.79,4.71.24,9.64.43,14.46.72,17.64.64,35.29,1.15,52.92q.43,14.73.7,29.45c.23,13.84-5,25.58-13.77,35.92-11.5,13.63-26.36,21.35-43.82,24.5C431.4,343,420.71,345.3,410,347.44l-26.29,5.28A4.63,4.63,0,0,1,382.39,352.59Z"/><path class="cls-3" d="M991.49,58.83a42.27,42.27,0,0,1-3.35,3,38.05,38.05,0,0,0-9.8,10.47c-4.62,7.09-9.36,14.11-14.07,21.14-.36.54-.82,1-1.63,2-1.45-7-2.94-13.57-4.08-20.16A42.6,42.6,0,0,0,957.23,70c-1.31-4.26-4.85-6.47-9.4-6.78-4-.28-7.88.87-11.82,1.32-5.72.65-11.39,1.77-17.09,2.68-2.44.38-4.92.57-7.31,1.14a11.21,11.21,0,0,0-6.6,5c-4,5.89-7.9,11.84-12,17.68a14.36,14.36,0,0,0-2.55,7.37c-.46,5.87-2.23,11.55-3,17.46,0-2.14-.07-4.28,0-6.41.34-8.83-.7-17.6-1-26.39-.18-4.9-4.36-8.49-9.61-8.91-4.21-.35-8.21.92-12.31,1.31-5.56.52-11,2-16.56,2.65a13,13,0,0,0-9.74,6.06c-2.27,3.28-4.48,6.6-6.69,9.92a7.83,7.83,0,0,1-2.38,2.68c-1.56-1.67-2.27-3.86-3.35-5.8-3.66-6.6-7.51-8-15.11-7.07-5.56.69-11,1.93-16.65,2.39-4.58.37-9.09,1.54-13.69,2-3.51.38-6,2.79-8,5.54-4.28,5.91-8.39,11.94-12.66,17.85A16.59,16.59,0,0,0,757,124.55a24,24,0,0,1-.08,8c-1.77-8.47-3.61-16.93-5.26-25.43-.25-1.31-.64-2.54-1-3.8-1.3-4.64-4.74-8.26-11-8.14-4.35.09-8.53,1-12.79,1.54-5.56.69-11.11,1.52-16.61,2.57-3.56.68-7.19.76-10.7,1.81a12.55,12.55,0,0,0-7.05,5.13c-3.3,4.78-6.69,9.49-10.09,14.2-.75,1-1.7,2-2.72,3.1A60,60,0,0,0,651.45,111c1.28-1.4,2.25-2.51,3.28-3.56,11.64-11.9,23.56-23.52,36-34.55A205.76,205.76,0,0,1,729,46.06a224.64,224.64,0,0,1,28.85-13.2,221.38,221.38,0,0,1,33.75-9.61c8.42-1.69,16.9-2.93,25.41-4.09,19.86-2.71,39.82-2.49,59.71-1.64,18.83.79,37.46,3.6,55.26,10.46,12.57,4.84,24.36,11.21,36.1,17.7C975.72,49.94,983.36,54.27,991.49,58.83Z"/><path class="cls-4" d="M499.89,427.83c-.31,12.77.73,24.68.85,37.23,5.38-1.22,10.28-2.44,15.23-3.42,3.15-.62,6.22-2.25,9.74-1.4.92,10.61,1,21,.92,31.78-8,3-16.5,3.82-24.47,6.48-.8,3.12-.59,32.85.34,37.39L548,524.74c1.53,5.41,2.2,24,1.51,39.16-.77,1.42-2.12,1.79-3.64,2.17-16.69,4.25-33.35,8.59-50,12.87q-21.17,5.43-42.29,10.77c-1.14-1.23-.71-2.62-.73-3.89-.15-10.32,0-20.66-.44-31-.77-16.64-.34-33.3-.88-49.93-.62-19.31-.42-38.63-1.11-57.92-.53-15.14-.51-30.28-.76-45.41,0-1.31,0-2.62,0-4.26L545.43,377c1.13,13.41,1.39,26.59,1.2,40.3Z"/><path class="cls-4" d="M571.79,129.42c11.94-1.8,23.57-3.5,35.18-5.32,9.16-1.44,18.25-3.35,27.44-4.49,15-1.86,28.84.71,40,11.92a36,36,0,0,1,10.24,20.55,122.62,122.62,0,0,1,.81,26.38c-.84,12.51-6.34,23.27-15,32.34-10.46,11-23.41,17.19-38.37,19.38-4.06.59-8.09,1.46-12.38,2.25-.66,24.1,1.47,48,.92,71.78A3.32,3.32,0,0,1,618.3,306c-13.14,2.61-26.28,5.26-39.42,7.87a4.81,4.81,0,0,1-3.47-.2c-1.06-1.43-.63-3.15-.66-4.77-.15-9.48.09-19-.43-28.45-.89-16.29-.21-32.61-1-48.89-.69-14.13-.18-28.29-.93-42.4-1-19-.3-37.94-1.13-56.89A15.44,15.44,0,0,1,571.79,129.42Z"/><path class="cls-4" d="M782.35,96.52l33.5-5.1,31.46,58.78,1.06-.27c.23-7-.09-14-.47-21s-.29-14-.4-21-.21-14.14-.32-21.49l29-4.45c1.65,1.19,1.29,2.45,1.31,3.56.43,17.31.52,34.63,1.33,51.91.64,13.82.48,27.64,1,41.44.9,23.63,1.68,47.25,1.9,70.89v2.65c-3.61,2.9-8.2,2.23-12.24,3.39s-8.07,1.56-12.2,2.31c-13.88-26.95-27.63-53.63-41.41-80.31-.11-.22-.57-.26-1.19-.52.7,29.51,1.41,58.88,2.12,88.39-5.28,2.34-10.64,2.52-15.74,3.69-4.94,1.12-9.87,2.54-14.74,2.66-1.21-1.3-.85-2.53-.92-3.65-.89-13.79-.46-27.63-1.13-41.42-.7-14.47-.3-29-1.08-43.41-.67-12.31-.16-24.65-1-36.93-1-15.63-.13-31.29-1.27-46.91A3.72,3.72,0,0,1,782.35,96.52Z"/><path class="cls-4" d="M831.45,316.42l33.72-7.23c10.75,18.88,20.72,38.31,31.88,57.22.66-21.16-1.23-42.25-.7-63.7,9.57-2.51,19.1-4.2,28.68-6.08a17.17,17.17,0,0,1,1.18,6.79c.07,4.16.14,8.32.24,12.48.41,17.8.66,35.61,1.29,53.4q1.25,35.42,2.07,70.85c.16,7.3.59,14.61.71,21.92,0,1.66,0,3.31,0,5.33-7.74,2.58-15.67,4.13-24,6.31-7.39-12.77-13.78-26.22-20.76-39.34s-13.5-26.16-20.66-39.12c-1.31,14.8.61,29.44.38,44.1s1.42,29.23.94,44.4c-9.79,3-19.8,5.54-29.54,7.65-1.54-1.23-1.3-2.45-1.31-3.58-.11-7.33,0-14.66-.36-22-.63-11.64-.32-23.31-1-34.92-.78-13.31-.31-26.62-1-39.91s-.41-26.63-1.14-39.91c-.53-9.65-.48-19.29-.71-28.93C831.41,320.37,831.45,318.56,831.45,316.42Z"/><path class="cls-4" d="M558.26,563c-1.72-1.8-1.33-3.55-1.35-5.15-.14-8.82-.15-17.64-.33-26.46a13.72,13.72,0,0,1,1.47-6.22q19.35-41.76,38.68-83.53c6.4-13.85,12.72-27.74,19.07-41.61.53-1.16,1-2.35,1.85-4.31-21.49,4.43-42.19,9.36-63,13.53-1-3.88-1.56-25.94-.9-33.21,4.09-2.05,29.89-7.66,53.09-12.1,17.72-3.39,35.3-7.45,52.94-11.21,1.45,2,1.49,4,1.52,6,.13,8.15.2,16.31.37,24.46a12.87,12.87,0,0,1-1.29,5.76q-15.09,33-30.13,66.06-13.74,30.11-27.54,60.17a12.07,12.07,0,0,0-.46,1.36c1.13.82,2.21.32,3.34,0q26.76-6.66,53.54-13.27c1.43-.35,2.93-.42,4.92-.69,1.09,5.59.46,11,.63,16.4s0,10.87,0,16.73Z"/><path class="cls-4" d="M939.36,345.52c0-2.83.1-5.66,0-8.49-.63-15.55,5.26-28.51,15.93-39.42C966.4,286.23,980,280.54,996,281c16.63.47,29.37,12.24,32.44,27.9a68.71,68.71,0,0,1,1,11.9c.34,16.29.53,32.6,1.37,48.87.51,10,.41,20,.77,29.93.53,14.63-5.33,26.77-14.81,37.43a55.21,55.21,0,0,1-36.86,18.71c-17.57,1.72-33.79-8.28-37.59-28a60.27,60.27,0,0,1-.9-10.4c-.34-16.8-.6-33.6-1.3-50.39C939.84,359.8,939.55,352.67,939.36,345.52Z"/><path class="cls-4" d="M702,109.09c13-1.85,25.64-4.25,38.75-5.8,11.65,56,23.2,111.56,34.72,167.11a4.67,4.67,0,0,1-.06,3.39c-4,2.13-36.13,8.52-41.32,8.13-1-5.4-1.92-10.88-3-16.72l-21.11,4c-1.85,6-1.47,12.26-2.95,18.75-10,2.49-20.34,4.25-30.35,6.25a9.4,9.4,0,0,1-.73-.72,1.27,1.27,0,0,1-.23-.41,1.66,1.66,0,0,1-.07-.49,12.46,12.46,0,0,1,.07-1.5q12.68-89.6,25.39-179.18A23.83,23.83,0,0,1,702,109.09Z"/><path class="cls-4" d="M761.7,492.46c-1.79,6.25-1.33,12.82-2.84,19.09l-29.45,7.53c-1.58-1.64-.94-3.4-.76-4.92,1-8.4,2.23-16.77,3.36-25.16q1.31-9.62,2.61-19.22c1.21-8.71,2.46-17.4,3.65-26.11,1.13-8.21,2.2-16.44,3.31-24.65,1.17-8.71,2.39-17.42,3.55-26.13.85-6.41,1.63-12.83,2.47-19.25.76-5.75,1.56-11.5,2.35-17.25.88-6.4,1.83-12.8,2.63-19.21.51-4,.81-4.31,4.7-5.12,10.37-2.17,20.72-4.43,31.08-6.65a4.58,4.58,0,0,1,3.56.29c6,27.67,11.82,55.83,17.53,84,5.67,28,11.8,55.91,17.4,84.42l-40.52,10.4c-3-5.39-1.92-11.4-4.34-16.87C775.12,488.58,768.64,491.12,761.7,492.46Z"/><path class="cls-4" d="M979.6,177l34.16-6.28a18.9,18.9,0,0,1,1.59,8.1,26.06,26.06,0,0,0,1.08,6.36c1.36,4.79,2.89,6.2,8,7.65.32-.05.65-.09,1-.17,10.48-2.44,14.44-12.25,8.69-21.45-2.64-4.23-6.51-7.05-10.75-9.42-5.64-3.15-11.38-6.13-17-9.29A63.66,63.66,0,0,1,988,137.38c-9-10.94-11.55-23.71-10.18-37.4a57.28,57.28,0,0,1,3.28-14.48,41.3,41.3,0,0,1,23.09-24.16,70.47,70.47,0,0,1,31-5.92c8.32.31,16.06,2.43,22,8.91a28.75,28.75,0,0,1,6.08,10.19c3.25,9.42,3.54,19.16,3.1,29.28-10.34,2.2-20.56,3.8-30.46,5.34-2-1.61-1.38-3.41-1.41-5a45,45,0,0,0-1.08-9.39c-1.39-5.91-4.51-8-10.5-6.83-7.19,1.38-10.72,7.18-9.17,14.86,1.2,5.93,4.73,10.13,9.55,13.44a124.23,124.23,0,0,0,13.83,7.89c7.42,3.8,14.48,8.1,20.62,13.82,12.82,12,17.31,26.68,15,43.81a57.51,57.51,0,0,1-4.25,15.26c-4.59,10.6-12.72,17.78-22.78,22.76a72.26,72.26,0,0,1-32.71,7.28,32.74,32.74,0,0,1-17.94-5c-6.63-4.27-10.41-10.61-12.59-18A76.44,76.44,0,0,1,979.6,177Z"/><path class="cls-4" d="M1124.21,305.72l-30.4,6.8c-.68-4.29-.36-8.14-1.32-11.82-.47-1.76-.78-3.57-1.36-5.29a6.17,6.17,0,0,0-4.76-4c-4.27-1-10.18,1.86-12.19,5.86a16.74,16.74,0,0,0,3.45,19.25,33,33,0,0,0,7.66,5.52q6.23,3.18,12.5,6.22a75.77,75.77,0,0,1,20.14,13.6c11.17,10.85,14.46,24.26,13,39.17a55.4,55.4,0,0,1-4.15,16.83,48.25,48.25,0,0,1-19.67,22.56c-11.43,6.93-23.85,10.78-37.31,10.57-11.91-.19-20.7-5.57-25.52-16.62-4.26-9.75-5.09-20.1-4.82-31.07,11.19-3.4,22.47-5.62,33.53-8.4,1.6,2.4,1.3,4.64,1.32,6.72a31.15,31.15,0,0,0,1.32,7.84c.69,2.54,1.82,5,4.52,6.33,7.34.72,11.74-1.52,14.13-7.23,2.46-5.9.51-13.83-4.63-18.15a38.85,38.85,0,0,0-7.89-5.19c-4.77-2.35-9.55-4.68-14.3-7.07a61.66,61.66,0,0,1-19.64-15.1,42,42,0,0,1-9.64-22,61.07,61.07,0,0,1,4-32.14,41.72,41.72,0,0,1,18.43-20.89,65.35,65.35,0,0,1,37.25-8.88c10.9.68,18.74,5.89,22.78,16.38C1124.43,285.23,1124.74,295.21,1124.21,305.72Z"/><path class="cls-4" d="M948.2,70.91c1.18,3.46,32.21,156,33.06,162.2-5.9,2.34-12.35,2.8-18.57,4.14S950.37,239.74,944,241c-1.91-5.36-2-10.89-3.35-16.4-6.54.72-12.73,2.18-19,3.49-1.72,5.87-1,11.82-2.76,17.72-8.78,2.22-17.85,3.8-27,5.56-1.31-2.58-.62-4.94-.35-7.13,1.1-9.06,2.49-18.08,3.67-27.12,1.12-8.56,2.07-17.13,3.16-25.69,1.2-9.38,2.52-18.75,3.71-28.13,1.15-9.05,2.17-18.12,3.32-27.17,1.17-9.22,2.47-18.42,3.65-27.64q1.74-13.57,3.32-27.17a11.88,11.88,0,0,1,1.44-5.06C925.18,74.19,936.74,72.48,948.2,70.91Z"/><path class="cls-3" d="M373.17,665.74c-2.09-8.34-1.52-16.67-2.58-25.29a115.82,115.82,0,0,0,30.3-17.84c9.14-7.53,15.26-17.4,22.69-27,1.87,10.26.63,20.08,1.38,30.35,9.15-1.92,17.92-4.45,26.72-6.83s17.55-4.58,26.32-6.86l26.88-7c8.77-2.26,17.73-4,26.27-6.92,8.77-3,17.88-4.35,26.72-6.91s17.6-4.53,26.37-6.88,17.68-4.8,26.82-6.94c2.87,17.05,5.93,33.39,7.62,50a22.17,22.17,0,0,1-8.95,3.14c-8.51,1.19-17,2.52-25.48,3.88-10.44,1.67-21,2.8-31.43,4.31s-20.89,3.24-31.34,4.74c-8.18,1.18-16.4,2.06-24.58,3.21-10.8,1.52-21.57,3.23-32.37,4.75-6,.85-12.18,1.24-18.2,2.28-5.85,1-11.76,1.49-17.61,2.58-4.85.91-9.81,1.43-14.73,2-7.28.84-14.13,3.26-21.21,4.78C386.52,664.71,380.33,666.92,373.17,665.74Z"/><path class="cls-4" d="M562,316.92c-15.53,3.45-31.06,6.44-46.68,9.42-1.42-2.7-.71-5.23-.93-7.65s-.46-4.63-.49-6.95c-.2-15.32,0-30.65-.62-46-.54-14.31-.17-28.64-.86-42.94-.88-18.48-.42-37-1.08-55.43-.27-7.48-.55-15-.63-22.45,0-1.65,0-3.3,0-4.53a3.55,3.55,0,0,1,2.72-2c14.88-2,29.62-5.11,44.14-6.5,1.34,1.36,1,2.42,1,3.37.46,24.3.62,48.61,1.42,72.9.53,16.15.21,32.31,1,48.43.79,15.81.42,31.63.86,47.44C562,308.07,563,312,562,316.92Z"/><path class="cls-3" d="M530.49,450.23c4.81-1.91,8.8-4.18,10.69-8.88,13.74-3.12,27.37-6.21,41-9.26.41-.1.91.23,1.95.52-12.77,27.39-25.45,54.62-38.24,82.06l-28.36,6.81c5.54-7.68,10.21-14.59,15.36-21.12,3.11-4,5.11-7.92,4.84-13.09-.3-5.64,0-11.31-.21-17-.13-4.14-.43-8.28-.89-12.39C536.25,454.41,533.73,452.24,530.49,450.23Z"/><path class="cls-5" d="M570.09,85.72q-4.23-16.5-8.47-33c-.37-1.43-.94-2.82-1.39-4.24A5.62,5.62,0,0,0,555,44.11c-6.41-.8-12.81-1.47-19.26-2-12.07-.92-24.16-1.5-36.25-2.18-6-.34-12-.25-17.9-.92-5.44-.61-10.9-.71-16.36-1.2a101.36,101.36,0,0,1,12.15-1.66c6.78-.3,13.53-1.09,20.3-1.65,1.16-.1,2.33-.13,3.49-.15,14-.25,28-.55,42-.08a68.89,68.89,0,0,1,17,2.85,10.68,10.68,0,0,1,7.62,7.1c1.58,4.38,3,8.75,3,13.49-.06,9.31,0,18.61,0,27.92Z"/><path class="cls-6" d="M189.83,251.57c-.59.25-.94.56-1.17.48-9.67-3-19.22-6.24-26.48-13.9-6.13-6.46-5.11-12.53-.87-17.87,5.76-7.24,13.48-12,22.77-16.46l-18.05,23c.84,6.88,5.11,10.8,9.87,14.24,3.21,2.33,6.69,4.3,10,6.46C187.44,248.48,189.05,249.4,189.83,251.57Z"/><path class="cls-7" d="M717.92,582.28c34.07-2.25,67.84-5.69,102-12.54-1.95,2.42-4,3-5.89,3.88a157.6,157.6,0,0,1-32.66,11.29A78.53,78.53,0,0,1,767.19,587c-3,.08-6,.83-8.91.7-7.1-.32-14.21-.55-21.3-1.38-5.42-.64-10.74-1.86-16.16-2.4A3.05,3.05,0,0,1,717.92,582.28Z"/><path class="cls-8" d="M362.06,455.93c3.14-1.69,6.64-2.15,10.05-2.61,6.42-.86,11.45,3.55,11.59,10,.2,10.16,0,20.32.42,30.47.76,19.13.1,38.29,1,57.4.64,13-6.34,18.25-16.4,20.62-1.44.34-2.91.5-4.92.83-.27-4.38-.69-8.63-.76-12.89-.24-15-.07-30-.62-45-.65-18-.52-35.94-.78-53.91C361.66,459.26,361.34,457.58,362.06,455.93Z"/><path class="cls-9" d="M431.19,303.62c-.59-1.85-.35-3.85-.38-5.8q-.71-44-1.38-87.9c-.08-4.82-.37-9.64-.48-14.47,0-1.63-.39-3.34.95-5.3,3.78-.91,7.88-2.11,12.26-1.14,4.78,1.06,7.59,4,8.27,8.71a21.24,21.24,0,0,1,.13,3q.66,43.2,1.28,86.41c0,2.13.26,4.3-.71,6.37a15.69,15.69,0,0,1-5.22,6.54A23.5,23.5,0,0,1,431.19,303.62Z"/><path class="cls-5" d="M733.56,69.7c2.89-1.75,5.67-3.53,8.54-5.15,16.46-9.31,33.3-17.83,51.52-23.21a183.81,183.81,0,0,1,28.47-6.21c8.91-1.15,17.84-1.53,26.77-2.2,8.65-.65,17.27-.58,25.9-.55,14.63.06,29,2.5,43.09,6.13,5.08,1.31,10.12,2.74,15.14,4.35-4.13-.31-8.27-.38-12.33-.9-6.42-.82-12.86-1.09-19.29-1.67A306.14,306.14,0,0,0,862,39.41c-10.24.4-20.47,1.16-30.67,2.57a339.5,339.5,0,0,0-33.56,6.42c-7.68,1.87-15.23,4.34-22.78,6.76a379,379,0,0,0-38.92,14.76A2,2,0,0,1,733.56,69.7Z"/><path class="cls-10" d="M618.64,195.29c.05-12.27-1.17-24-.79-36.13,5.42-1.08,10.65-2.6,16.14-2a9,9,0,0,1,7.64,8.5c.24,5,.47,9.94.47,14.91A13.56,13.56,0,0,1,632.87,193,46.76,46.76,0,0,1,618.64,195.29Z"/><path class="cls-11" d="M989.93,316.44a9.64,9.64,0,0,1,3.63,6.19,37.73,37.73,0,0,1,.73,6.92q.68,27.45,1.35,54.9.29,10.71.78,21.44a16.66,16.66,0,0,1-1.11,6.33c-2,5.8-6.44,8.39-12.72,7.69-2.51-1.18-3.43-3.48-4.11-5.93a32.2,32.2,0,0,1-.88-7.89q-.66-27.7-1.34-55.39c-.18-6.81-.52-13.63-.73-20.44a19,19,0,0,1,.29-4.46C977.3,318.82,982.1,314.12,989.93,316.44Z"/><path class="cls-12" d="M712.45,245.56c2.15-17.31,4.17-33.62,6.2-49.93l1,0c2.8,15.54,5.13,31.16,7.91,47.08Z"/><path class="cls-13" d="M771.22,418.58c2.52,15.22,5,30.45,7.62,46a64.78,64.78,0,0,1-14.26,3.81c-.16-6.18,1.08-11.63,1.78-17.14s1.33-10.82,1.9-16.25S769.18,423.94,771.22,418.58Z"/><path class="cls-14" d="M923.88,205.16c1.84-15.6,3-30.89,5.33-46,0-.21.5-.35,1-.67l7.07,44.21C933,204.34,928.57,204.69,923.88,205.16Z"/><path class="cls-15" d="M563.7,624.54c-9,1.85-17.73,3.61-26.42,5.4-10.5,2.15-21,4.41-31.5,6.45q-12.61,2.46-25.32,4.49-13.45,2.13-27,3.79a34.81,34.81,0,0,1-9.51-.44c6.08-1.77,12.15-3.59,18.25-5.3,11.9-3.34,24-6.07,36-8.65,7.25-1.54,14.61-2.57,22-3.52,13-1.67,26-3,39.14-2.79C560.71,624,562.07,623.69,563.7,624.54Z"/></g></g></svg>